<svg xmlns="http://www.w3.org/2000/svg" width="1280" height="782" viewBox="0 0 1280 782"><rect width="100%" height="100%" rx="14" fill="#0d1117"/><g font-family="ui-monospace,SFMono-Regular,Menlo,monospace" font-size="15"><text x="28" y="50" fill="#7ee787">E2E Evidence  PASS</text><text x="28" y="72" fill="#c9d1d9">repository: qwen-code-dev-bot/oh-my-code</text><text x="28" y="94" fill="#c9d1d9">pull request: #37</text><text x="28" y="116" fill="#c9d1d9">commit: b048579e0a9c2c6528c375a0ab78e3a2657d6b0e</text><text x="28" y="138" fill="#c9d1d9">mode: api</text><text x="28" y="160" fill="#c9d1d9"></text><text x="28" y="182" fill="#c9d1d9">$ make integration</text><text x="28" y="204" fill="#c9d1d9">npm run build</text><text x="28" y="226" fill="#c9d1d9">&gt; oh-my-code@0.0.0 build</text><text x="28" y="248" fill="#c9d1d9">&gt; tsc -p tsconfig.build.json</text><text x="28" y="270" fill="#c9d1d9">npm run integration</text><text x="28" y="292" fill="#c9d1d9">&gt; oh-my-code@0.0.0 integration</text><text x="28" y="314" fill="#c9d1d9">&gt; node scripts/integration.mjs</text><text x="28" y="336" fill="#c9d1d9">Oh My Code — repository-aware code agent CLI</text><text x="28" y="358" fill="#c9d1d9">Usage:</text><text x="28" y="380" fill="#c9d1d9">  oh-my-code [options]</text><text x="28" y="402" fill="#c9d1d9">Options:</text><text x="28" y="424" fill="#c9d1d9">  -h, --help     Show help</text><text x="28" y="446" fill="#c9d1d9">  -v, --version  Show version</text><text x="28" y="468" fill="#c9d1d9">Run without options to launch the interactive terminal.</text><text x="28" y="490" fill="#c9d1d9">exit=0 duration=4.128s</text><text x="28" y="512" fill="#c9d1d9"></text><text x="28" y="534" fill="#c9d1d9">$ make smoke</text><text x="28" y="556" fill="#c9d1d9">npm run build</text><text x="28" y="578" fill="#c9d1d9">&gt; oh-my-code@0.0.0 build</text><text x="28" y="600" fill="#c9d1d9">&gt; tsc -p tsconfig.build.json</text><text x="28" y="622" fill="#c9d1d9">npm run smoke</text><text x="28" y="644" fill="#c9d1d9">&gt; oh-my-code@0.0.0 smoke</text><text x="28" y="666" fill="#c9d1d9">&gt; node scripts/smoke.mjs</text><text x="28" y="688" fill="#c9d1d9">smoke: ok</text><text x="28" y="710" fill="#c9d1d9">exit=0 duration=4.089s</text><text x="28" y="732" fill="#c9d1d9"></text></g></svg>