<svg xmlns="http://www.w3.org/2000/svg" width="1600" height="978" viewBox="0 0 1600 978"><rect width="100%" height="100%" rx="14" fill="#080b10"/><rect x="1" y="1" width="1598" height="976" rx="13" fill="none" stroke="#4f8cc9"/><g font-family="ui-monospace,SFMono-Regular,Menlo,monospace" font-size="15"><text x="28" y="38" fill="#7ee787" xml:space="preserve">TMUX E2E  PASS  qwen-code-dev-bot/oh-my-code  PR #57  da81b2fc9256</text><text x="28" y="60" fill="#d6deeb" xml:space="preserve"></text><text x="28" y="82" fill="#d6deeb" xml:space="preserve"></text><text x="28" y="104" fill="#d6deeb" xml:space="preserve"></text><text x="28" y="126" fill="#d6deeb" xml:space="preserve"></text><text x="28" y="148" fill="#d6deeb" xml:space="preserve"></text><text x="28" y="170" fill="#d6deeb" xml:space="preserve"></text><text x="28" y="192" fill="#d6deeb" xml:space="preserve"></text><text x="28" y="214" fill="#d6deeb" xml:space="preserve"></text><text x="28" y="236" fill="#d6deeb" xml:space="preserve"></text><text x="28" y="258" fill="#d6deeb" xml:space="preserve"></text><text x="28" y="280" fill="#d6deeb" xml:space="preserve"></text><text x="28" y="302" fill="#d6deeb" xml:space="preserve"></text><text x="28" y="324" fill="#d6deeb" xml:space="preserve"></text><text x="28" y="346" fill="#d6deeb" xml:space="preserve"></text><text x="28" y="368" fill="#d6deeb" xml:space="preserve"></text><text x="28" y="390" fill="#d6deeb" xml:space="preserve"></text><text x="28" y="412" fill="#d6deeb" xml:space="preserve"></text><text x="28" y="434" fill="#d6deeb" xml:space="preserve"></text><text x="28" y="456" fill="#d6deeb" xml:space="preserve"></text><text x="28" y="478" fill="#d6deeb" xml:space="preserve"></text><text x="28" y="500" fill="#d6deeb" xml:space="preserve"></text><text x="28" y="522" fill="#d6deeb" xml:space="preserve"></text><text x="28" y="544" fill="#d6deeb" xml:space="preserve"></text><text x="28" y="566" fill="#d6deeb" xml:space="preserve"></text><text x="28" y="588" fill="#d6deeb" xml:space="preserve"></text><text x="28" y="610" fill="#d6deeb" xml:space="preserve"></text><text x="28" y="632" fill="#d6deeb" xml:space="preserve"></text><text x="28" y="654" fill="#d6deeb" xml:space="preserve"></text><text x="28" y="676" fill="#d6deeb" xml:space="preserve"></text><text x="28" y="698" fill="#d6deeb" xml:space="preserve"></text><text x="28" y="720" fill="#d6deeb" xml:space="preserve"></text><text x="28" y="742" fill="#d6deeb" xml:space="preserve"></text><text x="28" y="764" fill="#d6deeb" xml:space="preserve"></text><text x="28" y="786" fill="#d6deeb" xml:space="preserve"></text><text x="28" y="808" fill="#d6deeb" xml:space="preserve"></text><text x="28" y="830" fill="#d6deeb" xml:space="preserve"></text><text x="28" y="852" fill="#d6deeb" xml:space="preserve"></text><text x="28" y="874" fill="#d6deeb" xml:space="preserve"></text><text x="28" y="896" fill="#d6deeb" xml:space="preserve">                                               turns: 11  ·  tokens: 1616</text><text x="28" y="918" fill="#d6deeb" xml:space="preserve">               Enter send  ·  ↑↓ history  ·  Ctrl+G regen  ·  Esc cancel  ·  Ctrl+U undo  ·  Ctrl+C exit</text><text x="28" y="940" fill="#d6deeb" xml:space="preserve"></text></g></svg>